<svg width="160" height="195" viewBox="0 0 160 195" fill="none" xmlns="http://www.w3.org/2000/svg">
<path d="M157.467 97.6769C157.467 150.671 122.407 192.916 79.957 192.916C37.5068 192.916 2.44672 150.671 2.44672 97.6769C2.44672 44.6825 37.5068 2.43764 79.957 2.43764C122.407 2.43764 157.467 44.6825 157.467 97.6769Z" stroke="#0082F4" stroke-width="4"/>
<g clip-path="url(#clip0_1_95)">
<path d="M114.071 86.0896H78.3203V59.1165C78.3203 57.1379 77.0041 55.5279 75.3862 55.5279H66.0031C64.5781 53.9178 62.675 52.9317 60.5863 52.9317C58.4976 52.9317 56.5946 53.9178 55.1695 55.5279H45.7864C44.1684 55.5279 42.8522 57.1379 42.8522 59.1165V108.323C42.8522 110.302 44.1684 111.912 45.7864 111.912H63.9882V138.765C63.9882 140.781 65.3299 142.422 66.9789 142.422H114.071C115.72 142.422 117.062 140.781 117.062 138.765V89.7467C117.062 87.7301 115.72 86.0896 114.071 86.0896ZM83.9928 90.4561H97.0576V118.307L91.1423 115.642C90.7442 115.463 90.3064 115.463 89.9082 115.642L83.993 118.307V90.4561H83.9928ZM60.5863 57.2983C62.9425 57.2983 64.8736 59.5647 64.9998 62.4085H56.1728C56.2989 59.5645 58.2302 57.2983 60.5863 57.2983ZM46.4226 59.8945H52.9337C52.7368 60.6943 52.623 61.5372 52.6016 62.4083H49.1256C48.1397 62.4083 47.3404 63.3858 47.3404 64.5916C47.3404 65.7973 48.1397 66.7748 49.1256 66.7748H72.0471C73.033 66.7748 73.8323 65.7973 73.8323 64.5916C73.8323 63.3858 73.033 62.4083 72.0471 62.4083H68.5709C68.5495 61.5372 68.4355 60.6943 68.2388 59.8945H74.7499V107.545H46.4226V59.8945ZM113.491 138.056H67.5586V111.912H75.3861C77.0039 111.912 78.3202 110.302 78.3202 108.323V90.4559H80.4222V121.438C80.4222 122.152 80.7075 122.821 81.1863 123.229C81.4899 123.488 81.8471 123.621 82.2076 123.621C82.4153 123.621 82.6242 123.577 82.8245 123.487L90.525 120.018L98.2255 123.487C98.7731 123.734 99.3849 123.637 99.8637 123.229C100.342 122.821 100.628 122.152 100.628 121.438V90.4561H113.491V138.056H113.491Z" fill="#0082F4"/>
<path d="M66.5584 80.9583L57.8615 91.5944L54.6139 87.6228C53.9168 86.7702 52.7865 86.7702 52.0892 87.6228C51.392 88.4754 51.392 89.8579 52.0892 90.7105L56.5991 96.226C56.9339 96.6355 57.388 96.8654 57.8615 96.8654C58.3349 96.8654 58.789 96.6355 59.1238 96.226L69.0832 84.046C69.7803 83.1934 69.7803 81.8109 69.0832 80.9583C68.386 80.1057 67.2557 80.1057 66.5584 80.9583Z" fill="#0082F4"/>
</g>
<defs>
<clipPath id="clip0_1_95">
<rect width="74.2096" height="90.7566" fill="white" transform="translate(42.8522 52.2986)"/>
</clipPath>
</defs>
</svg>
