<svg width="160" height="195" viewBox="0 0 160 195" fill="none" xmlns="http://www.w3.org/2000/svg">
<path d="M157.21 97.6769C157.21 150.671 122.15 192.916 79.6993 192.916C37.2491 192.916 2.18903 150.671 2.18903 97.6769C2.18903 44.6825 37.2491 2.43764 79.6993 2.43764C122.15 2.43764 157.21 44.6825 157.21 97.6769Z" stroke="#0082F4" stroke-width="4"/>
<g clip-path="url(#clip0_1_106)">
<path d="M114.432 80.4927L109.234 69.4827C108.925 68.8278 108.268 68.5513 107.695 68.8343L100.044 72.6116C99.4087 72.9252 99.1014 73.8095 99.3579 74.5867C99.6145 75.3642 100.337 75.74 100.973 75.4259L107.624 72.1423L111.743 80.8683L106.1 86.2638C105.695 86.6512 105.527 87.3037 105.678 87.9049C107.241 94.1282 107.301 100.987 105.678 107.449C105.527 108.05 105.695 108.702 106.1 109.09L111.743 114.485L107.624 123.211L100.973 119.928C100.496 119.692 99.9501 119.841 99.5999 120.301C95.8645 125.213 91.0823 128.593 85.7705 130.075C85.2687 130.215 84.8897 130.72 84.8178 131.343L83.8187 140.02H75.5799L74.5807 131.344C74.5089 130.72 74.1298 130.216 73.628 130.076C68.3161 128.593 63.5341 125.213 59.7987 120.302C59.4484 119.841 58.9025 119.692 58.4255 119.928L51.7744 123.211L47.655 114.485L53.2986 109.09C53.7038 108.703 53.8714 108.05 53.7205 107.449C52.1574 101.226 52.0977 94.3663 53.7205 87.9052C53.8714 87.3041 53.7038 86.6516 53.2986 86.2642L47.655 80.8687L51.7744 72.1427L58.4255 75.4262C58.9025 75.662 59.4486 75.5131 59.7987 75.0525C63.5341 70.1405 68.3163 66.7608 73.628 65.2785C74.1298 65.1385 74.5089 64.6342 74.5807 64.0106L75.5799 55.334H83.8187L84.8178 64.0106C84.8897 64.634 85.2687 65.1384 85.7705 65.2785C88.6791 66.09 91.4438 67.4793 93.9876 69.407C94.5706 69.848 95.3351 69.6283 95.6959 68.9162C96.0568 68.2038 95.8772 67.2682 95.2948 66.8268C92.7622 64.9077 90.0286 63.4776 87.1581 62.5682L86.1259 53.6048C86.0396 52.8561 85.5155 52.2989 84.8971 52.2989H74.5018C73.8834 52.2989 73.3593 52.8561 73.273 53.6048L72.2408 62.5682C67.0513 64.2106 62.3567 67.5285 58.575 72.2271L51.7037 68.8349C51.1303 68.5515 50.4739 68.8282 50.1646 69.4832L44.9668 80.4933C44.6575 81.1483 44.79 81.9818 45.2772 82.4476L51.1084 88.0227C49.6898 94.3181 49.6895 101.035 51.1084 107.332L45.2772 112.907C44.79 113.373 44.6575 114.207 44.9668 114.862L50.1646 125.872C50.4739 126.527 51.1301 126.803 51.7037 126.52L58.575 123.128C62.3567 127.826 67.0513 131.144 72.2408 132.787L73.273 141.75C73.3591 142.498 73.8832 143.055 74.5016 143.055H84.897C85.5154 143.055 86.0395 142.498 86.1257 141.749L87.1579 132.786C92.3475 131.144 97.042 127.826 100.824 123.127L107.695 126.519C108.269 126.802 108.925 126.526 109.234 125.871L114.432 114.861C114.741 114.206 114.609 113.372 114.122 112.906L108.29 107.331C109.709 101.036 109.709 94.3189 108.29 88.0219L114.122 82.4469C114.609 81.9812 114.741 81.1479 114.432 80.4927V80.4927ZM77.6667 90.4579L83.8709 103.357C84.2184 104.079 84.0212 105.009 83.4306 105.434C82.8401 105.859 82.0795 105.618 81.7319 104.896L75.5276 91.9969C75.1802 91.2743 75.3773 90.3443 75.968 89.9194C76.5589 89.4945 77.3194 89.7358 77.6667 90.4579V90.4579ZM72.8213 103.494C72.3369 104.087 71.5513 104.087 71.0666 103.494L67.1871 98.7499C66.7029 98.1575 66.7026 97.1965 67.1871 96.6037L71.0666 91.8592C71.5513 91.2666 72.3368 91.2668 72.8213 91.8592C73.306 92.4519 73.306 93.4127 72.8213 94.0053L69.8193 97.6766L72.8213 101.348C73.306 101.941 73.306 102.902 72.8213 103.494ZM87.2995 91.4147C87.617 91.4147 87.9347 91.5629 88.177 91.8592L92.0565 96.6039C92.5407 97.1963 92.541 98.1573 92.0565 98.7501L88.177 103.495C87.6924 104.087 86.9068 104.087 86.4223 103.495C85.9376 102.902 85.9376 101.941 86.4223 101.348L89.4243 97.6772L86.4223 94.0057C85.6379 93.0461 86.204 91.4147 87.2995 91.4147ZM72.4376 73.4557C74.8061 72.3936 77.2617 71.865 79.7113 71.8652C95.0396 71.8661 105.313 91.4401 98.838 108.525C93.9471 121.431 81.3824 127.065 70.829 121.083C57.4125 113.479 54.3706 91.6141 65.101 79.0455C65.5959 78.4657 66.3815 78.4865 66.8554 79.0918C67.3294 79.6969 67.3125 80.6577 66.8175 81.2374C57.3559 92.3203 60.0282 111.616 71.8724 118.33C81.1845 123.607 92.2707 118.637 96.5862 107.249C100.902 95.8611 96.8373 82.3023 87.5257 77.0244C83.0147 74.4675 77.9597 74.2122 73.2915 76.3053C72.6482 76.5934 71.9352 76.1896 71.6993 75.4029C71.4637 74.6159 71.7941 73.7441 72.4376 73.4557V73.4557Z" fill="#0082F4"/>
</g>
<defs>
<clipPath id="clip0_1_106">
<rect width="74.2096" height="90.7566" fill="white" transform="matrix(1 0 0 -1 42.5945 143.055)"/>
</clipPath>
</defs>
</svg>
