<svg width="160" height="195" viewBox="0 0 160 195" fill="none" xmlns="http://www.w3.org/2000/svg">
<path d="M157.253 97.6769C157.253 150.671 122.192 192.916 79.7422 192.916C37.292 192.916 2.23193 150.671 2.23193 97.6769C2.23193 44.6825 37.292 2.43764 79.7422 2.43764C122.192 2.43764 157.253 44.6825 157.253 97.6769Z" stroke="#0082F4" stroke-width="4"/>
<path d="M95.0158 98.0045C100.521 92.8679 104.982 86.2477 108.055 78.6587C111.127 71.0698 112.726 62.7165 112.728 54.2484C112.728 53.9663 112.637 53.6958 112.474 53.4964C112.31 53.2969 112.089 53.1849 111.859 53.1849C101.848 53.1823 92.1248 57.2716 84.2329 64.8028C81.1864 67.7047 78.4541 71.0688 76.1017 74.814C75.2745 75.4348 74.3007 75.6976 73.3367 75.5605C72.3726 75.4234 71.4742 74.8942 70.7855 74.0578C69.6508 72.6702 68.1122 71.8903 66.5076 71.8893C64.903 71.8883 63.3637 72.6663 62.2279 74.0525L53.6142 84.4326C53.5322 84.5316 53.4671 84.6494 53.4227 84.7794C53.3782 84.9094 53.3553 85.0488 53.3553 85.1897C53.3553 85.3306 53.3782 85.47 53.4227 85.6C53.4671 85.73 53.5322 85.8478 53.6142 85.9468L58.5978 91.9665C59.8557 93.4775 61.4643 94.477 63.2038 94.8285C64.9434 95.1801 66.7294 94.8665 68.3178 93.9307C68.3149 93.9438 68.3118 93.9566 68.3089 93.9695C68.269 94.1501 68.2688 94.3404 68.3082 94.5211C68.3476 94.7018 68.4254 94.8666 68.5335 94.9989L71.0417 98.0669L64.9052 99.6574C64.7521 99.6971 64.6105 99.7866 64.4955 99.9165C64.3804 100.046 64.2962 100.212 64.2517 100.395C64.2071 100.579 64.204 100.774 64.2425 100.959C64.281 101.145 64.3597 101.314 64.4704 101.45L67.5576 105.225C66.8609 104.716 66.1027 104.343 65.3111 104.123C65.0591 104.053 64.8067 103.999 64.5627 103.961C64.2575 103.914 63.9502 103.889 63.6425 103.886C62.6247 103.875 61.6154 104.114 60.674 104.587C59.7326 105.061 58.8781 105.759 58.1607 106.642C57.4199 107.533 56.8319 108.596 56.4309 109.768C56.0299 110.941 55.8241 112.199 55.8254 113.47C55.8253 113.747 55.9139 114.014 56.0723 114.212C56.2306 114.411 56.4462 114.526 56.673 114.533L57.3289 114.554C56.0596 116.702 55.5265 119.372 55.8431 121.995C55.8825 122.236 55.9892 122.453 56.1449 122.608C56.3006 122.764 56.4957 122.849 56.6968 122.848H59.0727C59.3033 122.848 59.5245 122.736 59.6876 122.536C59.8507 122.337 59.9423 122.066 59.9423 121.784C59.9423 121.502 59.8507 121.232 59.6876 121.032C59.5245 120.833 59.3033 120.721 59.0727 120.721H57.4885C57.4638 119.303 57.7183 116.616 59.8242 114.343C59.9551 114.202 60.0483 114.016 60.0914 113.809C60.1345 113.602 60.1256 113.384 60.0658 113.183C60.0061 112.982 59.8983 112.808 59.7565 112.684C59.6147 112.559 59.4455 112.49 59.2709 112.485L57.6244 112.434C57.8105 110.809 58.4299 109.304 59.3865 108.153C59.9366 107.476 60.5906 106.938 61.311 106.571C62.0314 106.204 62.8041 106.014 63.5845 106.013H63.6299C63.7683 106.014 63.9072 106.023 64.0459 106.036C63.5148 106.419 63.063 106.946 62.7256 107.578C62.3882 108.209 62.1743 108.926 62.1005 109.675L61.6017 114.602C61.5866 114.752 61.5976 114.904 61.6341 115.048C61.6705 115.192 61.7316 115.325 61.8132 115.437C61.8948 115.55 61.995 115.641 62.1074 115.703C62.2197 115.765 62.3415 115.797 62.4647 115.797C62.5004 115.797 62.5361 115.794 62.5715 115.789L66.6009 115.179C67.2133 115.086 67.8003 114.823 68.3163 114.409C68.8323 113.995 69.2636 113.442 69.5768 112.792C69.5893 112.983 69.5978 113.176 69.5981 113.371C69.6002 114.338 69.4455 115.295 69.143 116.188C68.8406 117.081 68.3964 117.892 67.8361 118.574C67.7535 118.672 67.6877 118.789 67.6426 118.919C67.5974 119.049 67.5737 119.188 67.5729 119.329C67.5721 119.47 67.5943 119.609 67.638 119.74C67.6817 119.87 67.7461 119.988 67.8276 120.088C67.909 120.188 68.0059 120.266 68.1124 120.32C68.219 120.373 68.3332 120.4 68.4484 120.4C68.5636 120.399 68.6775 120.37 68.7835 120.314C68.8894 120.259 68.9854 120.179 69.0657 120.078C69.9013 119.057 70.5349 117.816 70.9181 116.449C71.3013 115.083 71.4239 113.628 71.2767 112.194C71.2477 111.898 71.2054 111.596 71.1511 111.298C70.9717 110.315 70.6647 109.373 70.2419 108.508L73.2635 112.203C73.3725 112.336 73.5084 112.432 73.6573 112.479C73.8063 112.527 73.963 112.526 74.1114 112.475C74.2598 112.425 74.3946 112.327 74.502 112.192C74.6093 112.057 74.6854 111.889 74.7225 111.707L76.2041 104.38L78.4596 107.139C78.5673 107.271 78.7013 107.365 78.8482 107.414C78.9952 107.462 79.15 107.463 79.2971 107.415C79.3491 107.397 79.4006 107.38 79.4526 107.362C78.6575 109.313 78.38 111.519 78.659 113.673C78.9379 115.826 79.7593 117.819 81.0086 119.374L85.9303 125.507C86.0906 125.719 86.3128 125.847 86.5491 125.861V125.861C86.7854 125.847 87.0077 125.72 87.168 125.507L95.6513 114.96C96.7851 113.568 97.4217 111.684 97.4217 109.719C97.4217 107.755 96.7851 105.871 95.6513 104.479C94.9717 103.64 94.5401 102.548 94.425 101.375C94.3099 100.203 94.5178 99.0164 95.0158 98.0045V98.0045ZM110.98 55.3228C110.927 58.5575 110.632 61.7794 110.097 64.948C107.156 62.955 104.729 59.9986 103.087 56.411C105.685 55.7519 108.327 55.3876 110.98 55.3228V55.3228ZM59.8195 90.4531L55.4629 85.1909L63.4525 75.5621C64.2617 74.5725 65.3592 74.0166 66.5035 74.0166C67.6478 74.0166 68.7453 74.5725 69.5545 75.5621C70.1862 76.3302 70.9483 76.919 71.7868 77.2867C72.6253 77.6545 73.5196 77.7923 74.4065 77.6902C72.1749 81.7395 70.3929 86.1333 69.1075 90.7565C67.8149 92.1517 66.1381 92.8962 64.4147 92.8399C62.6913 92.7835 61.0493 91.9307 59.8195 90.4531V90.4531ZM68.3131 111.046C68.1905 111.578 67.9422 112.053 67.5995 112.413C67.2567 112.772 66.8347 113 66.3865 113.067L63.4648 113.51L63.8272 109.938C63.8858 109.379 64.0797 108.854 64.3839 108.431C64.6881 108.008 65.0888 107.706 65.5346 107.563C65.9255 107.441 66.3358 107.447 66.7243 107.58C67.1127 107.714 67.4655 107.97 67.7473 108.323C68.029 108.677 68.2297 109.114 68.3291 109.593C68.4286 110.071 68.4233 110.573 68.3138 111.048L68.3131 111.046ZM73.4038 109.367L66.8338 101.332L72.5087 99.8605L74.7674 102.622L73.4038 109.367ZM79.3332 105.199L70.1212 93.933C70.2758 93.2641 70.4417 92.5995 70.6188 91.9392C70.624 91.9328 70.6294 91.9271 70.6346 91.9215L70.6263 91.9114C72.7204 84.1571 76.2402 77.093 80.9151 71.262C85.59 65.431 91.2956 60.9881 97.5937 58.2749C98.8233 57.7475 100.068 57.2908 101.327 56.905C103.204 61.2642 106.123 64.82 109.694 67.0985C105.974 85.253 94.5362 100.05 79.3332 105.199V105.199ZM94.4173 113.442L86.5483 123.208L82.2456 117.88C81.0196 116.354 80.3203 114.309 80.2924 112.17C80.2646 110.031 80.9104 107.961 82.0961 106.388C85.8382 104.853 89.3975 102.719 92.6814 100.041C92.5982 101.125 92.711 102.219 93.0117 103.244C93.3125 104.269 93.7938 105.201 94.4217 105.974C95.2301 106.965 95.6838 108.309 95.683 109.709C95.6821 111.109 95.2269 112.452 94.4173 113.442V113.442Z" fill="#0082F4"/>
<path d="M64.9885 120.522C64.5274 120.655 64.0551 120.722 63.5812 120.721H62.2112C61.9806 120.721 61.7594 120.833 61.5963 121.032C61.4332 121.232 61.3416 121.502 61.3416 121.784C61.3416 122.066 61.4332 122.337 61.5963 122.536C61.7594 122.736 61.9806 122.848 62.2112 122.848H63.5812C64.1913 122.849 64.7994 122.763 65.3929 122.59C65.6172 122.525 65.811 122.353 65.9316 122.112C66.0522 121.872 66.0898 121.583 66.0361 121.308C65.9824 121.034 65.8418 120.797 65.6452 120.65C65.4486 120.502 65.2121 120.456 64.9878 120.522H64.9885Z" fill="#0082F4"/>
<path d="M99.9848 98.548C100.187 98.5483 100.383 98.4618 100.539 98.3036C101.159 97.6761 101.773 97.0188 102.365 96.3502C102.451 96.2559 102.52 96.1419 102.569 96.0148C102.618 95.8876 102.646 95.7498 102.651 95.6094C102.656 95.469 102.638 95.3287 102.599 95.1967C102.56 95.0646 102.499 94.9434 102.421 94.8401C102.343 94.7368 102.249 94.6534 102.145 94.5948C102.04 94.5361 101.927 94.5034 101.813 94.4984C101.698 94.4935 101.583 94.5165 101.476 94.566C101.368 94.6155 101.27 94.6906 101.186 94.7869C100.616 95.4299 100.025 96.0618 99.4291 96.6659C99.2912 96.8055 99.192 96.9938 99.1448 97.2049C99.0977 97.4161 99.105 97.6399 99.1657 97.8458C99.2264 98.0517 99.3376 98.2297 99.4841 98.3555C99.6306 98.4812 99.8052 98.5487 99.9842 98.5486L99.9848 98.548Z" fill="#0082F4"/>
<path d="M114.348 70.535C114.238 70.4946 114.123 70.4809 114.01 70.4947C113.896 70.5085 113.786 70.5496 113.685 70.6155C113.584 70.6815 113.495 70.771 113.423 70.8791C113.351 70.9871 113.296 71.1116 113.263 71.2453C112.531 74.2047 111.587 77.0795 110.443 79.8363C110.026 80.8401 109.576 81.8416 109.106 82.8128C108.528 84.006 107.904 85.1867 107.251 86.3226C106.214 88.123 105.087 89.843 103.876 91.4728C103.721 91.6816 103.64 91.9572 103.651 92.2389C103.662 92.5207 103.764 92.7856 103.934 92.9753C104.105 93.165 104.33 93.264 104.561 93.2505C104.791 93.2371 105.008 93.1122 105.163 92.9035C106.422 91.2081 107.594 89.419 108.673 87.5464C109.352 86.3655 110.001 85.1374 110.602 83.8961C111.091 82.8857 111.559 81.8439 111.993 80.7995C113.184 77.9311 114.166 74.9399 114.928 71.8607C114.994 71.5908 114.971 71.2996 114.862 71.051C114.753 70.8024 114.568 70.6168 114.348 70.535Z" fill="#0082F4"/>
<path d="M45.6796 96.7038C45.7938 96.7039 45.9069 96.6765 46.0125 96.6231C46.118 96.5696 46.2138 96.4912 46.2945 96.3923L46.9605 95.5778C47.1199 95.3775 47.2085 95.1084 47.2069 94.8288C47.2054 94.5493 47.1139 94.2817 46.9523 94.084C46.7906 93.8863 46.5718 93.7744 46.3432 93.7725C46.1146 93.7706 45.8946 93.8788 45.7308 94.0738L45.0641 94.8883C44.9425 95.037 44.8597 95.2265 44.8261 95.4328C44.7926 95.6391 44.8098 95.8529 44.8756 96.0472C44.9414 96.2415 45.0529 96.4076 45.1959 96.5245C45.3388 96.6413 45.5069 96.7037 45.6789 96.7038H45.6796Z" fill="#0082F4"/>
<path d="M48.85 93.2674L51.8257 89.6283C51.9065 89.5295 51.9706 89.4123 52.0143 89.2832C52.058 89.1542 52.0805 89.0159 52.0805 88.8762C52.0805 88.7366 52.058 88.5983 52.0143 88.4692C51.9706 88.3402 51.9066 88.2229 51.8258 88.1241C51.7451 88.0254 51.6492 87.947 51.5437 87.8936C51.4382 87.8401 51.3251 87.8126 51.2109 87.8126C51.0967 87.8126 50.9836 87.8401 50.8781 87.8935C50.7726 87.947 50.6767 88.0253 50.5959 88.1241L47.6203 91.7632C47.5384 91.8616 47.4733 91.9789 47.4288 92.1083C47.3842 92.2377 47.361 92.3766 47.3605 92.517C47.36 92.6574 47.3823 92.7965 47.426 92.9263C47.4697 93.0561 47.5339 93.1741 47.6151 93.2734C47.6963 93.3727 47.7927 93.4513 47.8989 93.5048C48.005 93.5583 48.1188 93.5855 48.2336 93.585C48.3484 93.5844 48.4619 93.5561 48.5677 93.5016C48.6735 93.4471 48.7694 93.3675 48.85 93.2674V93.2674Z" fill="#0082F4"/>
<path d="M46.375 100.368C46.538 100.567 46.7592 100.679 46.9899 100.679C47.2205 100.679 47.4417 100.567 47.6048 100.368L51.1026 96.0898C51.1834 95.991 51.2474 95.8737 51.2911 95.7447C51.3348 95.6157 51.3573 95.4773 51.3573 95.3377C51.3573 95.198 51.3348 95.0597 51.2911 94.9307C51.2474 94.8016 51.1833 94.6844 51.1026 94.5856C51.0218 94.4869 50.9259 94.4085 50.8204 94.3551C50.7149 94.3016 50.6018 94.2741 50.4876 94.2742C50.3734 94.2742 50.2603 94.3017 50.1548 94.3551C50.0493 94.4086 49.9534 94.4869 49.8727 94.5857L46.3748 98.8635C46.294 98.9623 46.23 99.0795 46.1863 99.2086C46.1426 99.3377 46.1201 99.476 46.1201 99.6157C46.1201 99.7553 46.1426 99.8936 46.1864 100.023C46.2301 100.152 46.2942 100.269 46.375 100.368V100.368Z" fill="#0082F4"/>
<path d="M52.1977 94.309C52.3119 94.3092 52.425 94.2817 52.5305 94.2283C52.636 94.1749 52.7319 94.0964 52.8125 93.9976L54.1057 92.4162C54.1875 92.3178 54.2526 92.2005 54.2972 92.0711C54.3418 91.9417 54.365 91.8028 54.3655 91.6625C54.366 91.5221 54.3437 91.3829 54.3 91.2531C54.2563 91.1233 54.192 91.0053 54.1109 90.906C54.0297 90.8068 53.9333 90.7281 53.8271 90.6746C53.721 90.6211 53.6072 90.5939 53.4924 90.5945C53.3776 90.595 53.2641 90.6234 53.1583 90.6779C53.0525 90.7324 52.9565 90.8119 52.876 90.912L51.5829 92.4935C51.4613 92.6423 51.3785 92.8317 51.3449 93.038C51.3114 93.2443 51.3286 93.4581 51.3944 93.6524C51.4602 93.8467 51.5717 94.0128 51.7147 94.1297C51.8576 94.2466 52.0257 94.309 52.1977 94.309V94.309Z" fill="#0082F4"/>
<path d="M48.6381 101.674L44.774 106.399C44.6131 106.599 44.5234 106.869 44.5243 107.149C44.5252 107.43 44.6168 107.699 44.779 107.897C44.9412 108.095 45.161 108.207 45.3904 108.208C45.6198 108.21 45.8403 108.1 46.0038 107.903L49.8677 103.178C49.9495 103.079 50.0146 102.962 50.0592 102.833C50.1037 102.703 50.1269 102.564 50.1274 102.424C50.1279 102.283 50.1056 102.144 50.0619 102.015C50.0182 101.885 49.9539 101.767 49.8727 101.667C49.7915 101.568 49.6951 101.49 49.5889 101.436C49.4828 101.383 49.369 101.355 49.2542 101.356C49.1394 101.357 49.0259 101.385 48.9201 101.439C48.8143 101.494 48.7184 101.574 48.6378 101.674H48.6381Z" fill="#0082F4"/>
<path d="M56.3861 93.7015C56.223 93.5021 56.0019 93.3901 55.7713 93.3901C55.5407 93.3901 55.3195 93.5021 55.1565 93.7015L50.6298 99.2367C50.548 99.3352 50.4829 99.4525 50.4383 99.5819C50.3937 99.7112 50.3705 99.8501 50.37 99.9905C50.3695 100.131 50.3918 100.27 50.4355 100.4C50.4792 100.53 50.5435 100.648 50.6246 100.747C50.7058 100.846 50.8022 100.925 50.9084 100.978C51.0145 101.032 51.1283 101.059 51.2431 101.059C51.3579 101.058 51.4714 101.03 51.5772 100.975C51.683 100.921 51.779 100.841 51.8595 100.741L56.3861 95.2048C56.549 95.0054 56.6405 94.735 56.6405 94.4531C56.6405 94.1712 56.549 93.9009 56.3861 93.7015V93.7015Z" fill="#0082F4"/>
<path d="M73.4954 128.028L72.8287 128.843C72.6656 129.042 72.574 129.313 72.574 129.595C72.574 129.877 72.6656 130.147 72.8287 130.347C72.9918 130.546 73.213 130.658 73.4437 130.658C73.6743 130.658 73.8955 130.546 74.0586 130.347L74.7245 129.531C74.8854 129.331 74.9751 129.061 74.9741 128.781C74.9732 128.5 74.8816 128.232 74.7194 128.033C74.5571 127.835 74.3373 127.723 74.1079 127.722C73.8785 127.721 73.658 127.831 73.4945 128.027L73.4954 128.028Z" fill="#0082F4"/>
<path d="M78.3595 122.078L75.3839 125.718C75.3013 125.816 75.2355 125.933 75.1904 126.063C75.1452 126.192 75.1215 126.332 75.1207 126.473C75.12 126.613 75.1421 126.753 75.1858 126.883C75.2295 127.014 75.294 127.132 75.3754 127.232C75.4569 127.331 75.5537 127.41 75.6603 127.464C75.7668 127.517 75.881 127.544 75.9962 127.543C76.1114 127.542 76.2253 127.514 76.3313 127.458C76.4373 127.403 76.5332 127.323 76.6136 127.222L79.5892 123.583C79.7486 123.382 79.8372 123.113 79.8356 122.834C79.8341 122.554 79.7426 122.286 79.581 122.089C79.4193 121.891 79.2005 121.779 78.9719 121.777C78.7434 121.775 78.5233 121.884 78.3595 122.078V122.078Z" fill="#0082F4"/>
<path d="M74.1386 134.322C74.3017 134.521 74.5229 134.634 74.7535 134.634C74.9841 134.634 75.2053 134.521 75.3684 134.322L78.8664 130.044C78.949 129.946 79.0147 129.829 79.0599 129.699C79.1051 129.57 79.1287 129.43 79.1295 129.289C79.1303 129.149 79.1082 129.009 79.0645 128.879C79.0208 128.748 78.9563 128.63 78.8749 128.53C78.7934 128.431 78.6966 128.352 78.59 128.298C78.4835 128.245 78.3693 128.218 78.2541 128.219C78.1389 128.22 78.025 128.249 77.919 128.304C77.813 128.359 77.7171 128.439 77.6367 128.54L74.1387 132.818C73.9757 133.018 73.8841 133.288 73.884 133.57C73.884 133.852 73.9756 134.123 74.1386 134.322V134.322Z" fill="#0082F4"/>
<path d="M79.3468 127.953C79.4276 128.051 79.5234 128.13 79.629 128.183C79.7345 128.237 79.8476 128.264 79.9618 128.264C80.076 128.264 80.1891 128.237 80.2946 128.183C80.4001 128.13 80.496 128.051 80.5768 127.953L81.8698 126.371C82.0329 126.172 82.1245 125.901 82.1244 125.619C82.1244 125.337 82.0328 125.066 81.8696 124.867C81.7065 124.668 81.4853 124.556 81.2546 124.556C81.024 124.556 80.8028 124.668 80.6397 124.867L79.3468 126.449C79.266 126.547 79.202 126.665 79.1583 126.794C79.1145 126.923 79.092 127.061 79.092 127.201C79.092 127.34 79.1145 127.479 79.1583 127.608C79.202 127.737 79.266 127.854 79.3468 127.953V127.953Z" fill="#0082F4"/>
<path d="M76.4015 135.628L72.5376 140.353C72.4558 140.452 72.3907 140.569 72.3461 140.698C72.3015 140.828 72.2783 140.967 72.2778 141.107C72.2774 141.247 72.2996 141.387 72.3433 141.516C72.387 141.646 72.4513 141.764 72.5325 141.863C72.6136 141.963 72.7101 142.041 72.8162 142.095C72.9224 142.148 73.0361 142.176 73.1509 142.175C73.2657 142.174 73.3793 142.146 73.4851 142.092C73.5909 142.037 73.6868 141.958 73.7673 141.857L77.6313 137.132C77.7131 137.034 77.7782 136.916 77.8228 136.787C77.8674 136.658 77.8906 136.519 77.891 136.378C77.8915 136.238 77.8692 136.099 77.8255 135.969C77.7818 135.839 77.7175 135.721 77.6363 135.622C77.5551 135.523 77.4587 135.444 77.3525 135.391C77.2464 135.337 77.1326 135.31 77.0178 135.31C76.903 135.311 76.7895 135.339 76.6837 135.394C76.5779 135.448 76.482 135.528 76.4015 135.628V135.628Z" fill="#0082F4"/>
<path d="M82.92 127.656L78.3932 133.192C78.3113 133.29 78.2462 133.408 78.2017 133.537C78.1571 133.666 78.1339 133.805 78.1334 133.946C78.133 134.086 78.1552 134.225 78.1989 134.355C78.2427 134.485 78.307 134.603 78.3881 134.702C78.4693 134.801 78.5658 134.88 78.6719 134.933C78.7781 134.987 78.8918 135.014 79.0066 135.014C79.1214 135.013 79.235 134.985 79.3408 134.93C79.4466 134.876 79.5425 134.796 79.623 134.696L84.1496 129.16C84.2315 129.062 84.2966 128.944 84.3412 128.815C84.3858 128.685 84.409 128.547 84.4094 128.406C84.4099 128.266 84.3877 128.127 84.344 127.997C84.3003 127.867 84.236 127.749 84.1548 127.65C84.0736 127.55 83.9772 127.472 83.8711 127.418C83.7649 127.365 83.6512 127.338 83.5364 127.338C83.4216 127.339 83.308 127.367 83.2022 127.422C83.0964 127.476 83.0005 127.556 82.92 127.656V127.656Z" fill="#0082F4"/>
<path d="M107.546 114.749C106.833 114.454 106.185 113.962 105.653 113.31C105.122 112.658 104.721 111.864 104.483 110.991C104.425 110.779 104.314 110.595 104.166 110.464C104.018 110.333 103.84 110.263 103.657 110.263C103.475 110.263 103.297 110.333 103.149 110.464C103.001 110.595 102.89 110.779 102.832 110.991C102.594 111.864 102.193 112.658 101.661 113.31C101.13 113.962 100.482 114.454 99.7689 114.749C99.596 114.819 99.4456 114.955 99.339 115.136C99.2325 115.317 99.1752 115.534 99.1752 115.757C99.1752 115.98 99.2325 116.198 99.339 116.379C99.4456 116.56 99.596 116.695 99.7689 116.766C100.482 117.06 101.13 117.553 101.661 118.205C102.193 118.857 102.594 119.651 102.832 120.524C102.89 120.736 103.001 120.92 103.149 121.051C103.297 121.181 103.475 121.251 103.657 121.251C103.84 121.251 104.018 121.181 104.166 121.051C104.314 120.92 104.425 120.736 104.483 120.524C104.721 119.651 105.122 118.857 105.653 118.205C106.185 117.553 106.833 117.06 107.546 116.766C107.719 116.695 107.869 116.56 107.976 116.379C108.082 116.198 108.14 115.98 108.14 115.757C108.14 115.534 108.082 115.317 107.976 115.136C107.869 114.955 107.719 114.819 107.546 114.749V114.749ZM103.657 117.83C103.201 117.02 102.628 116.317 101.966 115.757C102.628 115.197 103.201 114.495 103.657 113.685C104.114 114.495 104.687 115.197 105.349 115.757C104.687 116.317 104.114 117.02 103.657 117.83V117.83Z" fill="#0082F4"/>
<path d="M45.8509 74.0465C46.5641 74.341 47.2118 74.8336 47.7433 75.4856C48.2748 76.1376 48.6756 76.9312 48.9143 77.8044C48.9719 78.0162 49.0826 78.2005 49.2307 78.3312C49.3788 78.4618 49.5568 78.5321 49.7394 78.5321C49.922 78.5321 50.1 78.4618 50.2481 78.3312C50.3962 78.2005 50.5069 78.0162 50.5645 77.8044C50.8032 76.9312 51.204 76.1376 51.7355 75.4856C52.267 74.8336 52.9147 74.341 53.6279 74.0465C53.8008 73.9757 53.9512 73.8402 54.0577 73.6593C54.1643 73.4783 54.2216 73.2609 54.2216 73.0379C54.2216 72.8148 54.1643 72.5975 54.0577 72.4165C53.9512 72.2355 53.8008 72.1 53.6279 72.0293C52.9147 71.7347 52.267 71.2421 51.7355 70.5901C51.204 69.9381 50.8032 69.1445 50.5645 68.2714C50.5069 68.0595 50.3962 67.8752 50.2481 67.7446C50.1 67.6139 49.922 67.5436 49.7394 67.5436C49.5568 67.5436 49.3788 67.6139 49.2307 67.7446C49.0826 67.8752 48.9719 68.0595 48.9143 68.2714C48.6756 69.1445 48.2748 69.9381 47.7433 70.5901C47.2118 71.2421 46.5641 71.7347 45.8509 72.0293C45.678 72.1 45.5276 72.2355 45.4211 72.4165C45.3145 72.5975 45.2572 72.8148 45.2572 73.0379C45.2572 73.2609 45.3145 73.4783 45.4211 73.6593C45.5276 73.8402 45.678 73.9757 45.8509 74.0465V74.0465ZM49.7394 70.9655C50.1961 71.7756 50.7691 72.4777 51.4306 73.0379C50.7691 73.598 50.1961 74.3001 49.7394 75.1102C49.2827 74.3001 48.7097 73.598 48.0482 73.0379C48.7097 72.4777 49.2827 71.7756 49.7394 70.9655V70.9655Z" fill="#0082F4"/>
<path d="M61.0505 63.8204C61.9299 63.8204 62.6427 62.9474 62.6427 61.8706C62.6427 60.7937 61.9299 59.9207 61.0505 59.9207C60.1712 59.9207 59.4584 60.7937 59.4584 61.8706C59.4584 62.9474 60.1712 63.8204 61.0505 63.8204Z" fill="#0082F4"/>
<path d="M100.909 133.129C101.789 133.129 102.501 132.256 102.501 131.179C102.501 130.102 101.789 129.229 100.909 129.229C100.03 129.229 99.317 130.102 99.317 131.179C99.317 132.256 100.03 133.129 100.909 133.129Z" fill="#0082F4"/>
<path d="M91.4451 71.4369C90.4 71.4376 89.3711 71.7534 88.4496 72.3564C87.5281 72.9594 86.7423 73.831 86.1619 74.8939C85.5815 75.9569 85.2244 77.1785 85.1221 78.4505C85.0198 79.7225 85.1755 81.0058 85.5755 82.1866C85.9754 83.3675 86.6073 84.4096 87.4151 85.2206C88.2229 86.0316 89.1817 86.5865 90.2067 86.8362C91.2317 87.0859 92.2912 87.0227 93.2915 86.6522C94.2917 86.2817 95.2019 85.6153 95.9413 84.712V84.712C96.8306 83.6244 97.4362 82.2388 97.6815 80.7303C97.9269 79.2218 97.8009 77.6582 97.3196 76.2372C96.8384 74.8163 96.0233 73.6018 94.9776 72.7473C93.932 71.8928 92.7026 71.4368 91.4449 71.4369H91.4451ZM94.7115 83.2079C94.0654 83.998 93.2423 84.5361 92.3463 84.7541C91.4502 84.9722 90.5214 84.8603 89.6773 84.4327C88.8331 84.0051 88.1117 83.281 87.6041 82.352C87.0965 81.4229 86.8255 80.3307 86.8255 79.2133C86.8255 78.0959 87.0965 77.0037 87.6041 76.0746C88.1117 75.1456 88.8331 74.4215 89.6773 73.9939C90.5214 73.5663 91.4502 73.4544 92.3463 73.6724C93.2423 73.8905 94.0654 74.4286 94.7115 75.2187C95.5765 76.2789 96.0623 77.7155 96.0623 79.2133C96.0623 80.711 95.5765 82.1476 94.7115 83.2079V83.2079Z" fill="#0082F4"/>
</svg>
